<svg width="30px" height="22px" viewBox="0 0 30 22" version="1.1" xmlns="http://www.w3.org/2000/svg">
<rect fill="#F5F5F5" x="0" y="0" width="30" height="22" rx="4"></rect>
<path d="M21.0001,12.529 C21.0001,13.358 20.3281,14.029 19.5001,14.029 C18.6721,14.029 18.0001,13.358 18.0001,12.529 C18.0001,11.701 18.6721,11.029 19.5001,11.029 C20.3281,11.029 21.0001,11.701 21.0001,12.529 L21.0001,12.529 Z M22.7001,17.029 L22.6931,17.124 C22.6471,17.466 22.3541,17.729 22.0001,17.729 L8.0001,17.729 L7.9051,17.723 C7.5631,17.676 7.3001,17.383 7.3001,17.029 L7.3001,9.05 L7.3001,8.029 L7.3061,7.934 C7.3531,7.592 7.6461,7.329 8.0001,7.329 L22.0001,7.329 L22.0951,7.336 C22.4371,7.382 22.7001,7.675 22.7001,8.029 L22.7001,17.029 Z M19.2801,4.32 L19.3781,4.302 C19.6181,4.269 19.7001,4.35 19.7001,4.534 L19.7001,6.029 L11.5241,6.029 L19.2801,4.32 Z M22.0001,6.029 L21.0001,6.029 L21.0001,4.534 C21.0001,3.471 20.1041,2.807 19.0001,3.05 L8.0001,5.475 C6.8961,5.718 6.0001,6.778 6.0001,7.841 L6.0001,8.029 L6.0001,9.05 L6.0001,17.029 C6.0001,18.133 6.8961,19.029 8.0001,19.029 L22.0001,19.029 C23.1041,19.029 24.0001,18.133 24.0001,17.029 L24.0001,8.029 C24.0001,6.925 23.1041,6.029 22.0001,6.029 L22.0001,6.029 Z" fill="#4D4D4D"></path>
</svg>