<svg width="30px" height="22px" viewBox="0 0 30 22" version="1.1" xmlns="http://www.w3.org/2000/svg">
<rect fill="#F5F5F5" x="0" y="0" width="30" height="22" rx="4"></rect>
<path d="M7.8,13.5 L12.8,13.5 L12.8,12.5 L7.8,12.5 L7.8,13.5 Z M23.193,15.595 C23.148,15.936 22.855,16.2 22.5,16.2 L7.5,16.2 L7.405,16.194 C7.064,16.147 6.8,15.854 6.8,15.5 L6.8,11.5 L23.2,11.5 L23.2,15.5 L23.193,15.595 Z M6.806,6.405 C6.853,6.063 7.146,5.8 7.5,5.8 L22.5,5.8 L22.595,5.806 C22.937,5.853 23.2,6.146 23.2,6.5 L23.2,8.5 L6.8,8.5 L6.8,6.5 L6.806,6.405 Z M22.5,4.5 L7.5,4.5 C6.396,4.5 5.5,5.395 5.5,6.5 L5.5,15.5 C5.5,16.604 6.396,17.5 7.5,17.5 L22.5,17.5 C23.605,17.5 24.5,16.604 24.5,15.5 L24.5,6.5 C24.5,5.395 23.605,4.5 22.5,4.5 L22.5,4.5 Z" fill="#4D4D4D"></path>
</svg>