<?xml version="1.0" encoding="utf-8"?>
<!-- Generator: Adobe Illustrator 25.4.1, SVG Export Plug-In . SVG Version: 6.00 Build 0)  -->
<svg version="1.1" id="Layer_1" xmlns="http://www.w3.org/2000/svg" xmlns:xlink="http://www.w3.org/1999/xlink" x="0px" y="0px"
	 viewBox="0 0 1080 1080" style="enable-background:new 0 0 1080 1080;" xml:space="preserve">
<style type="text/css">
	.st0{fill:#AD802E;}
	.st1{fill:#884B01;}
	.st2{fill:#CDBE01;}
	.st3{fill:#1D1D1D;}
	.st4{fill:#454544;}
</style>
<g>
	<path class="st0" d="M502.4,853.5c-2.4,0-4.8,0.2-7.1,0.3c-27.6,0-55.1-0.1-82.7-0.1c-14.8,0-29.6-0.1-44.4-0.2
		c2.2-5.9,6-11,9.1-16.4c11.4-19.5,22.9-38.8,34.5-58.2c12.7-21.4,25.5-42.8,38.2-64.2c40.9,0,81.8,0,122.7,0c2,0,4.1,0.3,5.9-1.1
		c1.6,1.9,3.8,1.1,5.7,1.1c38.6,0,77.2,0,115.8,0c1.8,0,3.8,0.7,5.3-0.9c1.5-0.7,2.4-1.9,3.1-3.2c3.6-6.2,7.2-12.3,10.8-18.5
		c22-37,43.9-73.9,65.9-110.9c0.8-1.4,2.5-2.8,1.5-4.5s-3.1-0.9-4.7-0.9c-27.4,0-54.8-0.1-82.3,0c-13.5,0-26.9,0.2-40.4,0.2
		c-7-0.1-14-0.1-20.9-0.1c-35.3-0.1-70.5-0.1-105.8-0.2c0.7-1.4,1.3-2.8,2.1-4.1c15.4-26,30.8-52.1,46.2-78
		c11.1-18.7,22.3-37.3,33.5-55.9c127.8,0,255.7,0,383.5,0L899.7,630C778.3,853.7,778.3,853.7,778.3,853.7"/>
	<path class="st1" d="M318.5,93.5c0.9-1.6,2.1-3.1,3.1-4.7c1.4,1.5,2.9,2.8,4.2,4.4c11.8,14,23.5,28.1,35.3,42.1
		c19.4,23.1,38.9,46.2,58.4,69.3c-12.6,21.3-25.2,42.7-37.9,64c-17.4,29.3-34.9,58.6-52.3,88c-19.4,32.7-38.8,65.4-58.1,98.2
		c-5.2,8.9-11.4,17.3-15.4,26.9c0.5,3.1,2.9,4.9,4.7,7.1c13.9,16.5,27.7,33.1,41.8,49.5c7.3,8.5,13.9,17.6,22.3,25.2
		c3,3.7,7.7,3.1,11.1,2.7c12.3-1.3,24.7,0.6,37-0.6c-5.7,9.8-11.3,19.8-17.2,29.5c-1.6,2.6-1.2,4.3,0.5,6.3
		c8.2,9.6,16.3,19.2,24.4,28.8c15.7,18.6,31.2,37.3,46.9,55.8c7.9,9.3,16,18.5,23.9,27.8c0,0.3,0,0.6,0,0.9
		c-12.7,21.4-25.5,42.8-38.2,64.2c-11.5,19.4-23.1,38.7-34.5,58.2c-3.1,5.4-6.9,10.5-9.1,16.4c-0.3,0.1-0.6,0.1-0.9,0.1
		c-8.6-10.3-17.1-20.7-25.7-30.9c-19.3-23-38.5-46.1-58.1-68.9c-4.6-5.4-8.4-11.5-14.3-15.7l-2.8-4.7L81.9,508.7"/>
	<path class="st0" d="M255.9,481.6c4-9.6,10.1-18,15.4-26.9c19.2-32.8,38.7-65.5,58.1-98.2c17.4-29.3,34.9-58.6,52.3-88
		c12.7-21.3,25.3-42.6,37.9-64c127.9,0,255.8,0,383.7,0c-5.6,11.7-12.8,22.4-19.3,33.5c-15.4,26.3-31.1,52.4-46.6,78.6
		c-0.8,1.3-1.2,2.8-1.9,4.1c-2.2,0.1-4.4,0.2-6.6,0.2c-68,0-135.9,0-203.9,0c-2.1,0-4.5-0.9-6.3,1c-1.9,0.2-2.2,1.9-3,3.1
		c-4.1,5.7-6.4,12.6-11.6,17.6c-11.4,0.1-22.8,0.3-34.1,0.2c-3.1,0-4.9,0.9-6.5,3.6c-26.6,45.1-53.3,90.1-80,135.1
		C340.9,481.7,298.4,481.6,255.9,481.6z"/>
	<path class="st2" d="M803.2,204.6c-127.9,0-255.8,0-383.7,0c-19.5-23.1-39-46.2-58.4-69.3c-11.8-14-23.5-28.1-35.3-42.1
		c-1.3-1.6-2.8-2.9-4.2-4.4c1.4-1.5,3.2-0.7,4.8-0.7c125,0,250,0,375-0.1l4.2,0.1"/>
	<path class="st2" d="M998.1,437.6c-127.8,0-254.4,0-382.2,0c-7.4-8.9-14.7-17.8-22.2-26.6c-25-29.6-50-59.3-75-88.9
		c1.9-1.8,4.2-1,6.3-1c68,0,135.9,0,203.9,0c2.2,0,4.4-0.1,6.6-0.2c53.8,0,107.6,0,161.4-0.1h4.7"/>
	<path class="st3" d="M270.6,737.9c5.9,4.2,9.7,10.4,14.3,15.7c19.5,22.8,38.8,45.9,58.1,68.9c8.6,10.3,17.1,20.6,25.7,30.9
		c-4,6.9-7.9,13.8-12,20.7c-18,30.3-36.1,60.5-54,91c-5.1,8.7-11.2,16.9-15,26.5c-1.9,0.2-2.5-1.5-3.4-2.6
		c-30.9-36.7-61.8-73.3-92.8-110c-1.6-1.9-2.9-3.3-1.2-6.1C217.1,828,243.8,782.9,270.6,737.9z"/>
	<path class="st4" d="M287.7,991.7c3.8-9.5,9.9-17.7,15-26.5c17.8-30.4,36-60.6,54-91c4.1-6.9,8-13.8,12-20.7c0.3,0,0.6,0,0.9-0.1
		c14.8,0.1,29.6,0.2,44.4,0.2c27.6,0.1,55.1,0.1,82.7,0.1c-13.3,22.6-26.6,45.2-39.9,67.7c-13.1,22.1-26.2,44.2-39.3,66.3
		c-1.4,2.4-2.6,4.3-6.1,4.2c-40.4-0.2-80.7-0.1-121.1-0.1C289.4,992,288.5,991.8,287.7,991.7z"/>
	<path class="st1" d="M518.7,322.1c25,29.6,50,59.2,75,88.9c7.4,8.8,14.8,17.8,22.2,26.6c-11.2,18.6-22.4,37.2-33.5,55.9
		c-15.5,26-30.8,52-46.2,78c-0.8,1.3-1.4,2.7-2.1,4.1c-0.3,0-0.6,0.1-1,0c-13-15.5-25.9-31-38.9-46.5c-19.5-23.1-39-46.2-58.4-69.3
		c0.7-1.4,1.3-2.8,2-4c21.1-35.6,42.3-71.2,63.3-106.8c1.2-2,3.1-3.7,2.9-6.3c5.2-5,7.5-11.9,11.6-17.6
		C516.5,324,516.8,322.3,518.7,322.1z"/>
	<path class="st4" d="M579.9,713.6c-1.8,1.4-3.9,1.1-5.9,1.1c-40.9,0-81.8,0-122.7,0c0-0.3,0-0.6,0-0.9c4.9-6.2,8.4-13.2,12.4-19.8
		c18.3-30.6,36.6-61.3,54.6-92c5.1-8.6,10.8-16.9,14.8-26.1c0.3,0,0.6,0,1,0c35.3,0.1,70.5,0.1,105.8,0.2c7,0,14,0.1,20.9,0.1
		c0.2,1.5-0.6,2.5-1.3,3.7c-9.8,16.7-19.6,33.4-29.4,50.1"/>
	<path class="st1" d="M630.1,629.8c9.8-16.7,19.6-33.4,29.4-50.1c0.7-1.2,1.5-2.3,1.3-3.7c13.5-0.1,26.9-0.2,40.4-0.2
		c27.4,0,54.8,0,82.3,0c1.6,0,3.7-0.9,4.7,0.9c1,1.7-0.7,3.1-1.5,4.5c-22,37-43.9,73.9-65.9,110.9c-3.6,6.1-7.2,12.3-10.8,18.5
		c-0.8,1.3-1.7,2.6-3.1,3.2c-2.4-1.5-4.7-3-7.1-4.5c-0.2-1.1-0.8-1.7-2-1.7c-0.4-0.1-0.7-0.2-1.1-0.4
		c-13.4-13.6-24.9-28.8-37.2-43.3C649.7,652.5,639.9,641.2,630.1,629.8z"/>
	<path class="st2" d="M706.8,713.8c-1.6,1.6-3.5,0.9-5.3,0.9c-38.6,0-77.2,0-115.8,0c-1.9,0-4.1,0.8-5.7-1.1
		c16-26.9,32-53.9,48-80.8l3.6-5.4"/>
	<path class="st3" d="M533.1,575.7c-4,9.2-9.7,17.5-14.8,26.1c-18,30.8-36.3,61.4-54.6,92c-4,6.7-7.5,13.7-12.4,19.8
		c-8-9.3-16-18.4-23.9-27.8c-15.7-18.6-31.3-37.2-46.9-55.8c-8.1-9.6-16.3-19.2-24.4-28.8c-1.7-2-2.1-3.7-0.5-6.3
		c5.9-9.7,11.5-19.6,17.2-29.5c0.3-0.7,0.6-1.3,0.9-2c7-9.4,12.5-19.7,18.4-29.8c4.9-8.3,10.5-16.1,14.3-25.1
		c0.7-1.1,1.5-2.3,2.2-3.4c9.1-15.1,18.2-30.2,27.3-45.3c19.5,23.1,39,46.2,58.4,69.3C507.2,544.7,520.1,560.2,533.1,575.7z"/>
	<path class="st2" d="M328.5,567.3c-8.4-7.5-18.8-20.5-26.1-29c-14-16.4-27.9-33-41.8-49.5c-1.8-2.2-4.2-4-4.7-7.1
		c42.5,0,85,0,127.5,0.1c7.4,9.2,14.8,18.4,22.9,27c-3.8,8.9-9.4,16.8-14.3,25.1c-5.9,10.1-20,33.1-20,33.1"/>
	<path class="st0" d="M699.7,709.3c-1.3,0.2-1.9-0.4-2-1.7C698.9,707.6,699.5,708.2,699.7,709.3z"/>
</g>
</svg>
